<?xml version="1.0" encoding="UTF-8"?>
<svg version="1.1" xmlns="http://www.w3.org/2000/svg" width="1920" height="1920">
<path d="M0 0 C633.6 0 1267.2 0 1920 0 C1920 633.6 1920 1267.2 1920 1920 C1286.4 1920 652.8 1920 0 1920 C0 1286.4 0 652.8 0 0 Z " fill="#000000" transform="translate(0,0)"/>
<path d="M0 0 C3.91878477 1.69987632 7.10281214 4.27694072 10.42679214 6.90694618 C11.07298532 7.41425603 11.71917849 7.92156588 12.38495328 8.44424875 C14.56286707 10.15750427 16.73557707 11.87718623 18.9072876 13.59829712 C19.67360219 14.20465945 20.43991678 14.81102178 21.22945303 15.43575872 C79.62103212 61.67856091 135.8939819 110.1890881 190.8187511 160.48427272 C193.10191269 162.57487638 195.38679141 164.66357518 197.67334485 166.75046849 C253.52555436 217.7289956 308.63162179 270.94490315 410.06526947 524.62509537 C411.52390605 559.78148578 410.26972576 594.79412294 407.99986339 629.88626277 C407.74918093 633.76266559 407.50524569 637.63945278 407.26198769 641.51632786 C406.12742591 659.39064377 404.79392852 677.24468839 403.29785156 695.09228516 C403.20371922 696.22734299 403.10958687 697.36240083 403.01260203 698.53185436 C399.08763967 745.43935115 391.20870037 791.38373762 384 838 C291.93 838 199.86 838 105 838 C104.6875 740.6875 104.6875 740.6875 104.61206055 710.0456543 C104.57546418 700.92227094 104.57546418 700.92227094 104.5349884 691.79890442 C104.51716822 687.75889436 104.50747108 683.71895566 104.50288391 679.6789093 C104.49673304 674.50345139 104.47619193 669.328227 104.44583857 664.15285647 C104.43711925 662.26732352 104.43318308 660.38175987 104.43496072 658.49620759 C104.45600516 626.43698975 96.51975844 599.11592219 73.8125 575.375 C61.27042914 563.21883901 46.86658775 554.60184611 30 550 C29.01386719 549.71125 28.02773438 549.4225 27.01171875 549.125 C2.58701695 542.09825315 -25.06836278 545.32088354 -47.45166016 557.23071289 C-54.52331675 561.18123189 -60.88484783 565.6713982 -67 571 C-67.6703125 571.52722656 -68.340625 572.05445313 -69.03125 572.59765625 C-87.50189547 587.51343543 -99.19081319 612.77310067 -102 636 C-102.38630165 642.58735489 -102.31170003 649.19568743 -102.31884766 655.79174805 C-102.32826985 657.81557775 -102.33855061 659.8394036 -102.3496151 661.86322498 C-102.37675769 667.25770877 -102.392229 672.6521655 -102.40519714 678.04669952 C-102.41918195 683.11828672 -102.4438067 688.18980115 -102.4675293 693.26135254 C-102.53065153 708.07002686 -102.57679993 722.87876959 -102.625 737.6875 C-102.74875 770.790625 -102.8725 803.89375 -103 838 C-195.4 838 -287.8 838 -383 838 C-383.32265079 723.84883836 -383.32265079 723.84883836 -383.390625 676.24804688 C-383.40529164 666.04558359 -383.42028566 655.8431209 -383.43620795 645.64065949 C-383.43836667 644.25678467 -383.44051365 642.87290983 -383.44264871 641.48903497 C-383.47678876 619.42386421 -383.53682277 597.35885735 -383.61037777 575.29378567 C-383.6879707 551.97507958 -383.7359653 528.65649263 -383.75270796 505.33764702 C-383.76369737 491.36619114 -383.798434 477.39520542 -383.86333174 463.42389423 C-383.90554579 453.84957194 -383.91841752 444.2754935 -383.90801102 434.70108484 C-383.90287537 429.17294253 -383.91087173 423.64562303 -383.9536438 418.11762619 C-383.99250394 413.05838207 -383.99458959 408.00051592 -383.96719116 402.94120909 C-383.96380384 401.10930586 -383.97401566 399.27731753 -383.99906546 397.44558244 C-384.03113282 394.95631856 -384.01391707 392.47204152 -383.98438263 389.9828558 C-384.00539874 389.26966337 -384.02641485 388.55647095 -384.04806781 387.82166663 C-383.96464967 384.71584485 -383.46694408 382.52700422 -381.39379382 380.18719742 C-379.31748717 378.3786525 -377.17076916 376.69334206 -375 375 C-373.84879267 373.92824154 -372.71509654 372.83728825 -371.60190105 371.72609955 C-371.04639126 371.17283705 -370.49088146 370.61957454 -369.91853803 370.04954651 C-369.3379246 369.46630607 -368.75731117 368.88306562 -368.15910339 368.28215122 C-367.51673251 367.64093418 -366.87436162 366.99971714 -366.21252495 366.33906928 C-364.0731489 364.20232785 -361.93734119 362.06205618 -359.80151367 359.92176819 C-358.2480224 358.36871327 -356.69431128 356.81587823 -355.14039993 355.26324362 C-350.8806363 351.00571246 -346.62399108 346.74507549 -342.36785388 342.4839195 C-337.77398935 337.88573275 -333.17723136 333.29044016 -328.58082581 328.6947937 C-320.62072454 320.73538916 -312.6626099 312.77400185 -304.70568848 304.81141853 C-296.36252066 296.46232923 -288.01831559 288.1142788 -279.67272949 279.76760674 C-279.15339937 279.24820787 -278.63406924 278.72880901 -278.09900184 278.19367078 C-275.46147136 275.55580196 -272.8239224 272.91795161 -270.18636632 270.28010838 C-251.51530922 251.6069521 -232.84657055 232.93147952 -214.17919922 214.25463867 C-196.04658605 196.11283789 -177.9129204 177.97209018 -159.77783203 159.83276367 C-159.21861327 159.27341339 -158.65939452 158.7140631 -158.08322974 158.13776281 C-152.46721119 152.52042572 -146.85117127 146.90310999 -141.2351157 141.28580991 C-129.7950477 129.84320586 -118.35512232 118.40045922 -106.9152832 106.95762634 C-106.38932318 106.43152903 -105.86336315 105.90543171 -105.32146494 105.36339205 C-70.21192028 70.24465014 -35.10571043 35.12257467 0 0 Z " fill="#FEFEFE" transform="translate(959,748)"/>
<path d="M0 0 C0.33 0 0.66 0 1 0 C1 305.25 1 610.5 1 925 C-305.57 925 -612.14 925 -928 925 C-928 924.67 -928 924.34 -928 924 C-926.02652588 923.89510254 -926.02652588 923.89510254 -924.01318359 923.78808594 C-887.14441612 921.80522254 -850.66378201 918.78115587 -814.12304688 913.44824219 C-811.21453874 913.03079215 -808.30415109 912.63842704 -805.390625 912.2578125 C-793.25202009 910.65334888 -781.33825661 908.35002879 -769.37890625 905.734375 C-765.78692518 904.9536901 -762.19073855 904.19476075 -758.59375 903.4375 C-733.41233803 898.09117147 -708.22319945 892.28515568 -683.76171875 884.20703125 C-679.49305566 882.83733562 -675.20690907 881.72679328 -670.8359375 880.73828125 C-662.67906151 878.614797 -654.78823673 875.50100653 -646.875 872.625 C-639.82050598 870.06703738 -632.76570755 867.55677178 -625.625 865.25 C-620.63653262 863.61307244 -615.95000433 861.70169124 -611.2109375 859.453125 C-605.2194007 856.7416266 -599.07762084 854.3873214 -592.96484375 851.96484375 C-592.13533203 851.63548828 -591.30582031 851.30613281 -590.45117188 850.96679688 C-588.90337491 850.35631122 -587.35290164 849.75252938 -585.79882812 849.15820312 C-576.90332575 845.7086145 -568.28036073 841.62938717 -559.625 837.625 C-558.33360107 837.02807846 -558.33360107 837.02807846 -557.01611328 836.4190979 C-534.38103886 825.94262281 -512.18119477 814.94170757 -490.56640625 802.46679688 C-487.42414624 800.6708781 -484.25200751 798.93411003 -481.07446289 797.20166016 C-470.12153243 791.21760824 -459.54824536 784.66607811 -449 778 C-447.44394043 777.01942627 -447.44394043 777.01942627 -445.85644531 776.01904297 C-434.25641989 768.69811483 -422.73914044 761.34692847 -411.68408203 753.22167969 C-409.84519935 751.88770332 -407.98624552 750.5860435 -406.12109375 749.2890625 C-381.69439803 732.29519746 -358.34240141 713.73076496 -335.69580078 694.44140625 C-333.99765154 692.99800384 -332.29409807 691.56118577 -330.58984375 690.125 C-323.72036789 684.31348754 -317.0402287 678.34002149 -310.50048828 672.15893555 C-307.2556758 669.09266538 -303.97108651 666.09186823 -300.62109375 663.140625 C-293.52370423 656.772364 -286.83520271 649.98437066 -280.10375977 643.23413086 C-277.81053252 640.9355279 -275.5119876 638.6423397 -273.21289062 636.34960938 C-271.73145 634.86750813 -270.2503195 633.3850968 -268.76953125 631.90234375 C-268.0933223 631.22815903 -267.41711334 630.5539743 -266.72041321 629.85935974 C-262.85451454 625.97465272 -259.16388938 621.98916767 -255.59303284 617.83114624 C-252.86493418 614.69527391 -249.98382906 611.70368106 -247.125 608.6875 C-242.18801443 603.44203453 -237.50648978 598.10405918 -233.0078125 592.4765625 C-231.06889021 590.08497352 -229.06069443 587.78696676 -227 585.5 C-219.08618494 576.68085698 -211.8271528 567.30763963 -204.54052734 557.97021484 C-202.91330052 555.8891181 -201.27911192 553.81360575 -199.64453125 551.73828125 C-174.35807817 519.54844966 -151.66644093 485.31629527 -131 450 C-130.48131348 449.11570312 -129.96262695 448.23140625 -129.42822266 447.3203125 C-101.58792847 399.6923279 -78.41911289 349.88913169 -59.19287109 298.20458984 C-58.27231769 295.73156816 -57.33771076 293.26517727 -56.39453125 290.80078125 C-54.43934799 285.58860558 -52.74043021 280.28672034 -51 275 C-47.17380394 263.37756987 -47.17380394 263.37756987 -45.4921875 259.08984375 C-43.30955914 253.37406731 -41.77402656 247.44869714 -40.125 241.5625 C-39.46168204 239.20942541 -38.79760952 236.8565634 -38.1328125 234.50390625 C-37.61992676 232.68451538 -37.61992676 232.68451538 -37.09667969 230.82836914 C-36.34137305 228.19168985 -35.57454184 225.56194269 -34.78613281 222.93530273 C-31.70758113 212.67181712 -29.00164122 202.35598008 -26.5 191.9375 C-26.30579468 191.13263153 -26.11158936 190.32776306 -25.91149902 189.49850464 C-20.58208379 167.38437825 -16.22904062 145.2474891 -12.625 122.78417969 C-12.03729039 119.22578167 -11.40287343 115.67975145 -10.75 112.1328125 C-4.12399172 75.24381046 -1.80811812 37.40306166 0 0 Z " fill="#FEFEFE" transform="translate(1919,995)"/>
<path d="M0 0 C305.25 0 610.5 0 925 0 C925 304.26 925 608.52 925 922 C924.67 922 924.34 922 924 922 C923.96559814 921.16605713 923.93119629 920.33211426 923.89575195 919.47290039 C922.06913852 877.42114393 917.43780146 835.77906638 910.38806152 794.28808594 C910.03622256 792.21357523 909.6901434 790.13808969 909.34472656 788.0625 C902.21903803 745.5692093 892.04248164 702.00252323 876.9296875 661.59765625 C875.4754221 657.53426762 874.25459095 653.40314934 873.00390625 649.2734375 C870.59565911 641.4208651 867.9497608 633.66446863 865 626 C864.6481665 625.07856201 864.29633301 624.15712402 863.93383789 623.20776367 C852.49703385 593.32360911 839.75435045 564.10271075 825.66064453 535.38427734 C824.14071257 532.28676237 822.6304126 529.18472559 821.12109375 526.08203125 C815.0232921 513.63281033 808.36388566 501.56172223 801.45458984 489.54638672 C800.19657054 487.34411392 798.95934052 485.1330531 797.73828125 482.91015625 C779.16589283 449.11341819 757.29513809 416.7052917 734 386 C732.54130697 384.04193458 731.08298013 382.08359631 729.625 380.125 C718.27166054 364.99380716 706.28359427 350.382562 694 336 C693.49452637 335.40670898 692.98905273 334.81341797 692.46826172 334.20214844 C684.77515324 325.18727421 676.84341202 316.4399266 668.70898438 307.82226562 C667.11007732 306.11737387 665.52832609 304.3986559 663.953125 302.671875 C655.90871978 293.88461626 647.53904354 285.43109285 639.125 277 C638.53691559 276.40932739 637.94883118 275.81865479 637.34292603 275.21008301 C631.56505217 269.41215724 625.80238262 263.66617255 619.56982422 258.3515625 C617.60921283 256.66354623 615.79644892 254.86060781 614 253 C610.16450552 249.12007895 606.14802568 245.54083113 602 242 C600.95810756 241.10573172 599.91646037 240.21117767 598.875 239.31640625 C596.4860602 237.26471254 594.09347026 235.21736629 591.69921875 233.171875 C589.31513925 231.13283501 586.94307537 229.08128278 584.58203125 227.015625 C577.00381482 220.4079099 569.18163756 214.21680384 561.16015625 208.15625 C557.37932381 205.29911898 553.65183458 202.38025269 549.9375 199.4375 C519.8920588 175.75447221 487.97648144 154.3819198 455 135 C454.13181641 134.48663086 453.26363281 133.97326172 452.36914062 133.44433594 C408.74911246 107.70645202 363.42837748 85.64374839 316.29296875 67.12109375 C313.03161426 65.83611544 309.83226978 64.48171185 306.65234375 63.0078125 C300.73154511 60.33694928 294.5475099 58.43547946 288.375 56.4375 C275.11188907 52.12914672 275.11188907 52.12914672 271.12890625 50.36328125 C267.67526679 48.858512 264.17931178 47.77169075 260.5625 46.75 C259.06768666 46.31908558 257.5728964 45.88809113 256.078125 45.45703125 C255.27052734 45.22580566 254.46292969 44.99458008 253.63085938 44.75634766 C249.73228959 43.63554502 245.83988539 42.49385134 241.94677734 41.35424805 C237.84693977 40.15508228 233.74532125 38.96207938 229.64355469 37.76953125 C227.48297376 37.14059229 225.32337475 36.50828098 223.1640625 35.875 C219.78231391 34.89240961 216.39407216 33.93917168 213 33 C212.2678125 32.79584473 211.535625 32.59168945 210.78125 32.38134766 C184.07103574 24.99216378 156.87456711 19.59005019 129.625 14.625 C128.70014801 14.45583069 127.77529602 14.28666138 126.82241821 14.11236572 C111.49641516 11.32066249 96.17781611 9.18040229 80.6875 7.5 C78.31638868 7.24104626 75.94529492 6.98193167 73.57421875 6.72265625 C72.44161621 6.59906738 71.30901367 6.47547852 70.14208984 6.34814453 C67.49547337 6.0548986 64.85095972 5.74994654 62.20703125 5.43359375 C41.55236921 2.97880403 20.77755823 1.79832883 0 1 C0 0.67 0 0.34 0 0 Z " fill="#FEFEFE" transform="translate(995,0)"/>
<path d="M0 0 C0.33 0 0.66 0 1 0 C1.72396211 6.18830221 2.14108597 12.34476379 2.39453125 18.56640625 C3.43219845 43.68586555 5.67709296 68.28504997 9.5625 93.13989258 C10.10262353 96.67088989 10.55888642 100.20533733 11 103.75 C11.6166923 108.45709669 12.35695998 113.03924247 13.4765625 117.65014648 C14.03939363 120.17684872 14.46566787 122.70173084 14.875 125.2578125 C20.68890569 160.54469322 28.34078268 195.78327375 39.31542969 229.84130859 C40.27771003 232.87571758 41.14266697 235.93449408 42 239 C43.77345117 245.26823259 45.62381444 251.51188093 47.5 257.75 C47.78488281 258.7090625 48.06976563 259.668125 48.36328125 260.65625 C49.98140837 266.00567481 51.81226916 271.17790569 53.93701172 276.34570312 C55.11960139 279.29864637 56.20018071 282.27764053 57.26953125 285.2734375 C67.44931821 313.75664299 79.0390344 341.66696026 92 369 C92.51852539 370.10263184 93.03705078 371.20526367 93.57128906 372.34130859 C106.41894698 399.61700005 120.49780309 426.1339258 136 452 C136.59586914 452.99676758 137.19173828 453.99353516 137.80566406 455.02050781 C144.9137272 466.88500871 152.18793223 478.58703465 160 490 C161.02766962 491.51279951 162.05499418 493.02583348 163.08203125 494.5390625 C175.82524437 513.27807186 188.73728338 531.91951182 203.0234375 549.52734375 C204.88801822 551.85991212 206.70048771 554.22698752 208.50366211 556.60717773 C213.01338179 562.55152714 217.7207491 568.2736334 222.6105957 573.90917969 C225.6259407 577.38541062 228.56088931 580.90687089 231.4375 584.5 C235.48945413 589.49667203 239.8085257 594.20164936 244.22045898 598.87890625 C246.96266524 601.78799229 249.65106532 604.72750716 252.26879883 607.74951172 C255.74128712 611.72690517 259.29670688 615.61541927 262.91015625 619.46484375 C263.55203384 620.14876694 264.19391144 620.83269012 264.85523987 621.53733826 C271.56413034 628.65008266 278.43998565 635.59167911 285.36401367 642.49438477 C287.46457104 644.58950092 289.55961874 646.6900231 291.65429688 648.79101562 C293.01790811 650.15396713 294.38182893 651.51660897 295.74609375 652.87890625 C296.35770859 653.49254532 296.96932343 654.10618439 297.59947205 654.73841858 C301.33737178 658.45640355 305.19377738 661.98639598 309.18878174 665.42689514 C311.96431735 667.83754252 314.63175816 670.36016451 317.3125 672.875 C322.15869199 677.38862401 327.14987046 681.63843014 332.31640625 685.78515625 C335.15238541 688.12576787 337.85852845 690.5709021 340.5625 693.0625 C344.6334017 696.80084917 348.79434271 700.32631124 353.140625 703.73828125 C355.37771602 705.50778357 357.5921342 707.29629719 359.796875 709.10546875 C366.38901148 714.51419949 372.98010434 719.85309294 379.9296875 724.80078125 C383.15262959 727.10932629 386.33549303 729.46688515 389.51806641 731.83056641 C405.83220578 743.93035696 422.45122052 755.50153253 439.56494141 766.44287109 C441.92576864 767.95253182 444.28130555 769.47019268 446.63671875 770.98828125 C467.86521322 784.60218257 489.88724209 796.89383815 512 809 C512.81549316 809.44714355 513.63098633 809.89428711 514.47119141 810.35498047 C533.01036252 820.47658773 552.23999846 829.17084111 571.5 837.8125 C572.30561371 838.17480713 573.11122742 838.53711426 573.94125366 838.91040039 C584.20483477 843.52040148 594.51724331 847.91085984 605 852 C606.17699463 852.46253174 607.35398926 852.92506348 608.56665039 853.40161133 C613.69210523 855.41081529 618.82610358 857.29987129 624.0625 859 C627.88945537 860.24759735 631.56381761 861.63561355 635.25 863.25 C648.48598629 868.89013664 662.45172859 873.15888588 676.3215332 876.94677734 C679.68291436 877.90921169 683.00275776 878.9506878 686.32823181 880.02790833 C697.10399803 883.50963568 707.96439691 886.52177212 718.9375 889.3125 C719.85385223 889.54611237 720.77020447 889.77972473 721.71432495 890.02041626 C786.65976299 906.49653526 853.06898364 916.13488281 920 919 C920 919.33 920 919.66 920 920 C616.4 920 312.8 920 0 920 C0 616.4 0 312.8 0 0 Z " fill="#FEFEFE" transform="translate(0,1000)"/>
<path d="M0 0 C307.23 0 614.46 0 931 0 C931 0.33 931 0.66 931 1 C929.89342041 1.03440186 928.78684082 1.06880371 927.64672852 1.10424805 C846.51886031 3.7327596 763.57963396 15.06002644 686.17724609 40.29296875 C682.7503521 41.40580627 679.31367845 42.48671944 675.875 43.5625 C674.91412476 43.86401978 674.91412476 43.86401978 673.93383789 44.17163086 C668.29036073 45.93215731 662.61905294 47.59519861 656.93310547 49.21313477 C652.88164032 50.38237948 648.94613589 51.72677532 645.00927734 53.23681641 C640.97009533 54.77101847 636.87716869 56.15946138 632.79492188 57.57421875 C583.43229342 74.84421224 534.72821191 97.15030278 489.56640625 123.51171875 C486.98350591 125.00956506 484.38575104 126.47757789 481.78125 127.9375 C447.00967758 147.46500171 413.73161361 169.86479336 382 194 C381.43861328 194.42490723 380.87722656 194.84981445 380.29882812 195.28759766 C371.64784132 201.83814979 363.21545293 208.63840657 354.8203125 215.51171875 C353.22738135 216.81409379 351.6297048 218.11066032 350.03125 219.40625 C339.66093718 227.82450393 329.5194399 236.50058028 319.6953125 245.55078125 C317.52582529 247.52218484 315.33572981 249.45834318 313.125 251.3828125 C300.35354153 262.53508045 288.36960695 274.52727112 276.375 286.5 C275.71675232 287.15565948 275.05850464 287.81131897 274.38031006 288.48684692 C265.18594552 297.61938501 265.18594552 297.61938501 256.51318359 307.24169922 C253.67192583 310.5432059 250.62704642 313.65787972 247.625 316.8125 C242.501966 322.23270397 237.62298927 327.72611999 232.97265625 333.55859375 C231.04778871 335.94085555 229.05014744 338.22517886 227 340.5 C219.08389126 349.32169909 211.82397858 358.6978482 204.53613281 368.03857422 C202.92503848 370.09571533 201.30292606 372.14383756 199.6796875 374.19140625 C191.57866474 384.45224465 183.99118492 394.99505998 176.56494141 405.75195312 C174.78440768 408.30969954 172.96363307 410.83536104 171.13110352 413.35595703 C164.37856697 422.65675088 158.17667107 432.31070084 152 442 C151.40525879 442.93134766 150.81051758 443.86269531 150.19775391 444.82226562 C132.27700828 472.9650389 115.69031716 501.98376532 101.01464844 531.95605469 C99.89885848 534.20374321 98.75227148 536.43405538 97.6015625 538.6640625 C91.73979107 550.08871414 86.36599713 561.69127414 81.1875 573.4375 C80.87311981 574.14912292 80.55873962 574.86074585 80.23483276 575.59393311 C74.83356473 587.84406769 69.73300269 600.20068578 65.0625 612.75 C64.82072021 613.39936523 64.57894043 614.04873047 64.32983398 614.71777344 C63.81659373 616.09795371 63.30431131 617.47849053 62.79296875 618.859375 C61.96876653 621.08431498 61.14063274 623.30777031 60.3125 625.53125 C54.57641852 640.96971523 48.91174668 656.41702443 44.30444336 672.23608398 C43.14284541 676.22013446 41.94588664 680.18800502 40.66992188 684.13696289 C36.91743276 695.76971768 33.62898659 707.46535798 30.625 719.3125 C30.39110565 720.22954712 30.1572113 721.14659424 29.91622925 722.09143066 C18.96627764 765.14242741 11.33919534 808.67665042 6.36328125 852.81738281 C5.99614681 856.03375681 5.6073736 859.24709729 5.21875 862.4609375 C2.64720743 884.5762036 1.84487875 906.76467205 1 929 C0.67 929 0.34 929 0 929 C0 622.43 0 315.86 0 0 Z " fill="#FEFEFE" transform="translate(0,0)"/>
<path d="M0 0 C16.5 0 33 0 50 0 C50 20.79 50 41.58 50 63 C77.39 63 104.78 63 133 63 C133 79.5 133 96 133 113 C105.61 113 78.22 113 50 113 C50 145.67 50 178.34 50 212 C52.475 212.99 52.475 212.99 55 214 C65.4047215 221.80575831 74.35741575 232.19617053 83.53616333 241.36207581 C85.42805389 243.24779709 87.3201309 245.13332966 89.21242607 247.01864475 C93.85591701 251.64591625 98.49674543 256.2758495 103.13671333 260.90665341 C106.99566178 264.75782857 110.85576184 268.60784633 114.71659088 272.45713615 C115.27519735 273.01407454 115.83380381 273.57101293 116.40933775 274.14482824 C117.54880432 275.28088576 118.68827213 276.41694205 119.82774115 277.55299712 C135.18483475 292.8645528 150.53447112 308.18357806 165.8828125 323.50390625 C166.51147633 324.13141509 167.14014015 324.75892392 167.7878544 325.40544818 C192.69933258 350.27119784 217.60773449 375.14002917 242.50971834 400.01528718 C248.67093087 406.16987696 254.83226875 412.32434125 260.99365234 418.47875977 C261.67441536 419.1587596 262.35517838 419.83875943 263.05657058 420.53936532 C285.13553236 442.59337604 307.2287217 464.63306506 329.32981057 486.66489973 C352.06909603 509.33306107 374.79532422 532.01422901 397.50473415 554.71232222 C400.71337049 557.91935378 403.92214817 561.12624389 407.13100815 564.33305168 C407.76248668 564.96413733 408.39396521 565.59522298 409.04457946 566.24543244 C419.19483631 576.38863982 429.35859035 586.51821715 439.52741919 596.64280172 C449.75070383 606.82222617 459.95918663 617.01630796 470.15288533 627.22536112 C476.20408409 633.28480246 482.26609032 639.33293108 488.34441137 645.36516782 C492.4099923 649.40213635 496.46069984 653.45364094 500.49994124 657.51696257 C502.79756657 659.82746294 505.10295106 662.12906225 507.42241253 664.41766829 C521.15696286 677.98045797 532.13851236 690.33440859 532.3125 710.5 C532.34036853 725.80911275 526.83949852 738.57985161 516.46875 749.828125 C506.3637063 758.71800522 494.47006658 763.54020715 481.125 763.375 C479.73087891 763.39240234 479.73087891 763.39240234 478.30859375 763.41015625 C459.92127038 763.33322184 447.83477301 753.46778396 435.40596986 741.0513764 C433.78248529 739.41363031 432.15923492 737.77565204 430.53619385 736.13746643 C428.78623693 734.38969181 427.03518084 732.64301715 425.28312659 730.89734501 C421.48696069 727.11000643 417.69862943 723.31508376 413.91711044 719.51313782 C408.29419392 713.85993256 402.6568845 708.22124334 397.01661773 702.58535505 C387.52728708 693.10258054 378.04959955 683.60825024 368.57855988 674.10721016 C359.20502334 664.70405849 349.82630776 655.30612226 340.4406662 645.91505241 C339.85645273 645.33049525 339.27223927 644.74593809 338.67032236 644.14366707 C335.7032044 641.17485737 332.735994 638.20614008 329.76874802 635.23745834 C308.76810602 614.22632257 287.77907272 593.20362558 266.796875 572.17407227 C246.41669055 551.74794417 226.03124455 531.32709063 205.63867188 510.91333008 C205.00975859 510.28375917 204.38084531 509.65418825 203.73287405 509.00553944 C197.41689211 502.68296472 191.10080325 496.36049682 184.78463606 490.03810715 C171.91860967 477.1594007 159.0532968 464.27998157 146.18841553 451.40013123 C145.59694668 450.80797593 145.00547784 450.21582063 144.39608569 449.60572124 C104.91876474 410.08241997 65.45813086 370.54245858 26 331 C23.12027911 332.30578719 21.05763435 333.69339637 18.82807243 335.92813325 C17.91752934 336.83347181 17.91752934 336.83347181 16.98859143 337.75710005 C16.32973722 338.42235167 15.67088301 339.0876033 14.99206352 339.77301407 C14.28301554 340.48095275 13.57396755 341.18889144 12.84343326 341.91828281 C10.45063832 344.3097864 8.06510212 346.70840408 5.67941284 349.10699463 C3.95522948 350.83316883 2.2306006 352.55889812 0.5055629 354.28421855 C-3.25344845 358.04584089 -7.00933227 361.8105458 -10.762537 365.57795906 C-16.3438924 371.18038385 -21.93100691 376.77703827 -27.51941932 382.37242268 C-36.92138279 391.78636268 -46.3189617 401.20466772 -55.71435928 410.62516022 C-69.13968865 424.08613803 -82.57343298 437.53869835 -96.00893728 450.9895195 C-101.39937415 456.38617575 -106.78953857 461.78310413 -112.17970085 467.18003464 C-112.77858603 467.77966935 -113.3774712 468.37930407 -113.99450441 468.99710953 C-128.25458792 483.27514385 -142.51198437 497.55586021 -156.76855469 511.83740234 C-157.39245464 512.46239111 -158.01635459 513.08737987 -158.6591606 513.73130768 C-173.21238476 528.30997531 -187.76432111 542.88992688 -202.31402588 557.47210693 C-202.93958241 558.09905784 -203.56513894 558.72600875 -204.20965173 559.37195816 C-207.3638943 562.53323583 -210.51812757 565.69452277 -213.67236017 568.85581037 C-214.29573631 569.48058008 -214.91911245 570.10534979 -215.56137878 570.74905191 C-216.81960239 572.01008904 -218.07782449 573.27112767 -219.33604508 574.53216781 C-240.12621541 595.36884265 -260.92318151 616.19871527 -281.7276442 637.02112014 C-284.66608584 639.96211497 -287.60443526 642.90320192 -290.54272079 645.84435272 C-291.12100061 646.42319523 -291.69928043 647.00203775 -292.29508389 647.59842094 C-301.60087328 656.91372303 -310.89923316 666.23640736 -320.19465149 675.56205722 C-329.5386795 684.93624287 -338.88977253 694.30333134 -348.24818154 703.66316065 C-353.80701917 709.22330505 -359.36016505 714.78899708 -364.90532215 720.36278591 C-369.04782164 724.52544686 -373.20074036 728.67760146 -377.35775195 732.82577297 C-379.03695217 734.50467064 -380.71276258 736.18696706 -382.38481165 737.87298682 C-384.65971832 740.16591466 -386.94669035 742.44611027 -389.23701668 744.72362137 C-389.88182389 745.37950833 -390.5266311 746.03539529 -391.19097793 746.71115762 C-403.29355911 758.64881596 -416.81137403 763.27857727 -433.4140625 763.24438477 C-446.59361832 763.06146822 -457.67037986 758.33651212 -467.375 749.1875 C-479.45512867 736.18005855 -482.71065488 721.24722717 -482.13183594 704.11132812 C-481.85765449 699.72036307 -480.79435861 695.99279034 -479 692 C-478.43152344 690.70255859 -478.43152344 690.70255859 -477.8515625 689.37890625 C-475.23793638 684.05345418 -472.07466382 679.76038041 -468.04168797 675.41723251 C-467.56107783 674.89957592 -467.0804677 674.38191933 -466.58529362 673.84857617 C-461.1280592 668.00668619 -455.48947193 662.34717385 -449.83299255 656.69927979 C-448.64502368 655.5094376 -447.45726968 654.31938084 -446.26970917 653.12913108 C-443.0397998 649.89316297 -439.80683398 646.66026436 -436.5733012 643.42791748 C-433.0740294 639.92885117 -429.57762927 636.42691724 -426.08082581 632.92538452 C-419.24649528 626.08278276 -412.40942223 619.24292784 -405.57123458 612.40418091 C-400.01683522 606.84930533 -394.46322847 601.29363856 -388.91017342 595.73741913 C-373.16104526 579.97949907 -357.40983737 564.22366216 -341.65593695 548.47051314 C-340.38463317 547.19926929 -340.38463317 547.19926929 -339.08764648 545.90234375 C-338.2390758 545.05381394 -337.39050511 544.20528414 -336.51622016 543.33104131 C-322.7275525 529.54278114 -308.9438951 515.7495243 -295.16246831 501.95402721 C-281.00682274 487.78404317 -266.84747792 473.61776503 -252.68422848 459.45538116 C-244.73421217 451.50569738 -236.78575555 443.55446822 -228.84127617 435.59925079 C-222.08723379 428.83613737 -215.32978471 422.07645145 -208.5677973 415.32128134 C-205.11590439 411.87266907 -201.66567892 408.42242935 -198.21973801 404.9678688 C-195.07060156 401.81093562 -191.91695669 398.65858302 -188.75952853 395.50994346 C-187.61339374 394.3653587 -186.46897478 393.2190529 -185.32637971 392.07093456 C-183.78276579 390.52034924 -182.23322883 388.97594648 -180.68193722 387.43304825 C-179.81985934 386.570753 -178.95778147 385.70845776 -178.06958002 384.82003236 C-176 383 -176 383 -174 383 C-173.64421875 382.15743652 -173.64421875 382.15743652 -173.28125 381.29785156 C-171.70680643 378.47417342 -169.78315455 376.52385158 -167.5 374.234375 C-166.613125 373.34492187 -165.72625 372.45546875 -164.8125 371.5390625 C-163.884375 370.61867188 -162.95625 369.69828125 -162 368.75 C-161.071875 367.81414062 -160.14375 366.87828125 -159.1875 365.9140625 C-158.300625 365.02976562 -157.41375 364.14546875 -156.5 363.234375 C-155.6853125 362.42194336 -154.870625 361.60951172 -154.03125 360.77246094 C-152 359 -152 359 -150 359 C-149.64421875 358.15743652 -149.64421875 358.15743652 -149.28125 357.29785156 C-147.70680643 354.47417342 -145.78315455 352.52385158 -143.5 350.234375 C-142.613125 349.34492187 -141.72625 348.45546875 -140.8125 347.5390625 C-139.884375 346.61867188 -138.95625 345.69828125 -138 344.75 C-137.071875 343.81414062 -136.14375 342.87828125 -135.1875 341.9140625 C-134.300625 341.02976562 -133.41375 340.14546875 -132.5 339.234375 C-131.6853125 338.42194336 -130.870625 337.60951172 -130.03125 336.77246094 C-128 335 -128 335 -126 335 C-125.64421875 334.15743652 -125.64421875 334.15743652 -125.28125 333.29785156 C-123.70680643 330.47417342 -121.78315455 328.52385158 -119.5 326.234375 C-118.613125 325.34492187 -117.72625 324.45546875 -116.8125 323.5390625 C-115.884375 322.61867188 -114.95625 321.69828125 -114 320.75 C-113.071875 319.81414062 -112.14375 318.87828125 -111.1875 317.9140625 C-110.300625 317.02976562 -109.41375 316.14546875 -108.5 315.234375 C-107.6853125 314.42194336 -106.870625 313.60951172 -106.03125 312.77246094 C-104 311 -104 311 -102 311 C-101.64421875 310.15743652 -101.64421875 310.15743652 -101.28125 309.29785156 C-99.70680643 306.47417342 -97.78315455 304.52385158 -95.5 302.234375 C-94.613125 301.34492187 -93.72625 300.45546875 -92.8125 299.5390625 C-91.884375 298.61867188 -90.95625 297.69828125 -90 296.75 C-89.071875 295.81414062 -88.14375 294.87828125 -87.1875 293.9140625 C-86.300625 293.02976562 -85.41375 292.14546875 -84.5 291.234375 C-83.6853125 290.42194336 -82.870625 289.60951172 -82.03125 288.77246094 C-80 287 -80 287 -78 287 C-77.68554176 286.199039 -77.68554176 286.199039 -77.36473083 285.38189697 C-75.46448284 282.06534925 -72.8523793 279.56592657 -70.16430664 276.88964844 C-69.56720886 276.28743973 -68.97011108 275.68523102 -68.35491943 275.06477356 C-66.3784846 273.07443701 -64.39470364 271.09162048 -62.41015625 269.109375 C-61.0266713 267.72200053 -59.64340949 266.33440352 -58.26036072 264.94659424 C-55.355934 262.03470191 -52.44765728 259.12672026 -49.53686523 256.22119141 C-45.83004208 252.52013204 -42.1346389 248.80790522 -38.44236088 245.09234238 C-35.58464855 242.21979559 -32.71992907 239.3543152 -29.85323906 236.49073029 C-28.48952397 235.12650581 -27.12813471 233.75995185 -25.76924324 232.39092255 C-10.63013818 217.15286889 -10.63013818 217.15286889 -2 212 C-1.34 212 -0.68 212 0 212 C0 179.66 0 147.32 0 114 C-27.39 114 -54.78 114 -83 114 C-83 97.17 -83 80.34 -83 63 C-55.61 63 -28.22 63 0 63 C0 42.21 0 21.42 0 0 Z " fill="#FDFDFD" transform="translate(935,334)"/>
<path d="M0 0 C0 3 0 3 -1.36108398 4.66992188 C-1.98313721 5.26353516 -2.60519043 5.85714844 -3.24609375 6.46875 C-4.25446289 7.44908203 -4.25446289 7.44908203 -5.28320312 8.44921875 C-5.99412109 9.12597656 -6.70503906 9.80273438 -7.4375 10.5 C-8.83651789 11.8390782 -10.2312581 13.18264393 -11.62109375 14.53125 C-12.2442749 15.12486328 -12.86745605 15.71847656 -13.50952148 16.33007812 C-15.23298172 18.03929226 -15.23298172 18.03929226 -16 21 C-17.32134808 21.69011699 -18.65702241 22.35298112 -20 23 C-21.44868291 24.2707917 -22.84719918 25.59966991 -24.20912552 26.96302986 C-25.04613786 27.79606011 -25.8831502 28.62909035 -26.74552655 29.48736393 C-27.65992088 30.40758395 -28.57431521 31.32780396 -29.51641846 32.27590942 C-30.50114641 33.25976534 -31.48631369 34.2431817 -32.47188258 35.22619522 C-35.18093295 37.93076753 -37.88369755 40.64154667 -40.58549404 43.3533628 C-43.49935619 46.27585053 -46.41898415 49.19256788 -49.33792114 52.10998535 C-54.39507341 57.16608821 -59.44854683 62.22584415 -64.49954987 67.28808975 C-71.80248382 74.60726806 -79.11092493 81.92092674 -86.42072806 89.23324393 C-98.2798431 101.09673774 -110.13448363 112.96469233 -121.98632812 124.83544922 C-133.50026272 136.36773789 -145.01629307 147.89792706 -156.53515625 159.42529297 C-157.2450103 160.13567247 -157.95486436 160.84605197 -158.68622914 161.57795812 C-162.24732116 165.14166019 -165.8084545 168.70532096 -169.3696084 172.26896119 C-198.91948249 201.83957346 -228.46210286 231.41742433 -258 261 C-258.66 260.67 -259.32 260.34 -260 260 C-174.2 174.2 -88.4 88.4 0 0 Z " fill="#171717" transform="translate(807,816)"/>
<path d="M0 0 C0 3 0 3 -2.265625 5.5234375 C-3.25306151 6.48159691 -4.24821944 7.43184782 -5.25 8.375 C-8.77177754 11.73963786 -11.97432593 15.17634596 -15 19 C-16.0828125 19.7734375 -16.0828125 19.7734375 -17.1875 20.5625 C-19.33620437 22.26664484 -19.63216384 23.33318782 -20 26 C-20.556875 26.04125 -21.11375 26.0825 -21.6875 26.125 C-24.52784046 27.19972342 -25.67341176 28.88725356 -27.5078125 31.234375 C-30.28274695 34.51780529 -33.48910818 37.51740285 -37 40 C-37.99 40 -38.98 40 -40 40 C-26.8 26.8 -13.6 13.6 0 0 Z " fill="#1F1F1F" transform="translate(301,261)"/>
<path d="M0 0 C0.66 0.33 1.32 0.66 2 1 C-1.3 4.3 -4.6 7.6 -8 11 C-8.99 10.67 -9.98 10.34 -11 10 C-5.555 5.05 -5.555 5.05 0 0 Z " fill="#D8D8D8" transform="translate(1603,1672)"/>
</svg>
